<?xml version="1.0" encoding="UTF-8"?>
<svg id="Layer_1" data-name="Layer 1" xmlns="http://www.w3.org/2000/svg" viewBox="0 0 792 1224">
  <defs>
    <style>
      .cls-1 {
        fill: none;
        stroke: #231f20;
        stroke-miterlimit: 10;
      }

      .cls-2 {
        fill: #13143f;
      }

      .cls-3 {
        fill: #70cde0;
      }

      .cls-4 {
        fill: #b3b3b3;
      }
    </style>
  </defs>
  <path class="cls-4" d="M476.16,559.34c-9.64-33.49-40.49-58-77.09-58h-88.42c-36.63,0-67.51,24.56-77.12,58.11,0,0,0,0,0,0-1.07,.35-2.1,.79-3.1,1.28-.15,.07-.31,.14-.46,.22-.41,.21-.8,.44-1.19,.67-.21,.12-.41,.25-.61,.37-.37,.23-.73,.47-1.09,.73-.21,.15-.41,.31-.62,.46-.34,.26-.68,.52-1.01,.79-.19,.16-.37,.34-.55,.5-.54,.49-1.06,1-1.56,1.54-.23,.25-.46,.49-.68,.75-.23,.27-.44,.54-.66,.82-.22,.29-.44,.58-.65,.87-.19,.27-.38,.55-.56,.83-.22,.34-.43,.69-.63,1.04-.15,.26-.3,.51-.44,.77-.3,.56-.57,1.13-.83,1.71-.07,.16-.13,.33-.2,.49-.22,.55-.43,1.11-.62,1.68-.08,.24-.14,.48-.21,.73-.13,.47-.26,.94-.36,1.42-.06,.26-.11,.52-.16,.79-.09,.5-.17,1-.23,1.51-.03,.24-.06,.47-.09,.71-.07,.75-.11,1.5-.11,2.26v15.56c0,.75,.05,1.49,.11,2.23,.02,.22,.05,.44,.08,.66,.06,.53,.14,1.06,.24,1.58,.04,.22,.08,.44,.13,.66,.14,.64,.3,1.27,.49,1.89,.02,.06,.03,.13,.05,.2,.21,.67,.45,1.32,.72,1.97,.09,.22,.19,.43,.28,.64,.2,.44,.4,.87,.63,1.3,.12,.22,.23,.45,.35,.66,.26,.47,.54,.93,.84,1.38,.09,.14,.17,.28,.26,.41,.37,.54,.77,1.07,1.18,1.58,.17,.21,.35,.42,.53,.62,.27,.32,.55,.62,.84,.93,.21,.22,.41,.43,.63,.64,.31,.3,.63,.59,.96,.87,.23,.2,.46,.4,.69,.59,.45,.37,.92,.72,1.4,1.05,.26,.18,.53,.35,.79,.52,.32,.2,.63,.4,.96,.58,.29,.16,.58,.33,.87,.48,.35,.18,.7,.35,1.06,.51,.28,.13,.55,.26,.83,.38,7.01,37.16,39.62,65.28,78.82,65.28h13.92v26.61l92.04-28.55c31.05-6.93,55.29-31.83,61.26-63.23,8.91-3.56,15.21-12.25,15.21-22.42v-15.56c0-10.82-7.12-19.98-16.92-23.05Z"/>
  <rect class="cls-2" x="262.76" y="544.32" width="185.43" height="97.83" rx="30.51" ry="30.51"/>
  <path class="cls-3" d="M413.34,594.94c-.26-6.17-3.71-11.91-9.55-14.26s-12.17-.15-15.86,4.58c-2.18,2.79-3.3,6.15-3.45,9.68-.13,3.22,4.87,3.21,5,0,.22-5.31,4.13-10.19,9.43-10.19s9.21,4.88,9.43,10.19c.13,3.21,5.13,3.22,5,0h0Z"/>
  <path class="cls-3" d="M326.52,594.94c-.26-6.17-3.71-11.91-9.55-14.26s-12.17-.15-15.86,4.58c-2.18,2.79-3.3,6.15-3.45,9.68-.13,3.22,4.87,3.21,5,0,.22-5.31,4.13-10.19,9.43-10.19s9.21,4.88,9.43,10.19c.13,3.21,5.13,3.22,5,0h0Z"/>
  <line class="cls-1" x1="323.33" y1="586.26" x2="323.34" y2="586.26"/>
</svg>