<?xml version="1.0" encoding="UTF-8"?>
<svg id="Layer_1" data-name="Layer 1" xmlns="http://www.w3.org/2000/svg" viewBox="0 0 792 1224">
  <defs>
    <style>
      .cls-1 {
        fill: none;
        stroke: #231f20;
        stroke-miterlimit: 10;
      }

      .cls-2 {
        fill: #13143f;
      }

      .cls-3 {
        fill: #70cde0;
      }

      .cls-4 {
        fill: #b3b3b3;
      }
    </style>
  </defs>
  <path class="cls-4" d="M482.53,537.52c-6.01-20.89-25.26-36.18-48.08-36.18h-55.15c-22.85,0-42.11,15.32-48.1,36.25,0,0,0,0,0,0-.67,.22-1.31,.49-1.94,.8-.09,.05-.19,.09-.29,.14-.25,.13-.5,.27-.74,.42-.13,.08-.26,.15-.38,.23-.23,.15-.46,.3-.68,.45-.13,.09-.26,.19-.39,.29-.21,.16-.42,.32-.63,.49-.12,.1-.23,.21-.35,.31-.34,.31-.66,.62-.97,.96-.14,.15-.29,.31-.42,.47-.14,.17-.27,.34-.41,.51-.14,.18-.28,.36-.41,.54-.12,.17-.24,.34-.35,.52-.14,.21-.27,.43-.39,.65-.09,.16-.19,.32-.27,.48-.18,.35-.36,.7-.51,1.07-.04,.1-.08,.2-.13,.31-.14,.34-.27,.69-.38,1.05-.05,.15-.09,.3-.13,.45-.08,.29-.16,.58-.23,.88-.04,.16-.07,.33-.1,.49-.06,.31-.1,.63-.14,.94-.02,.15-.04,.29-.05,.44-.04,.46-.07,.93-.07,1.41v9.7c0,.47,.03,.93,.07,1.39,.01,.14,.03,.27,.05,.41,.04,.33,.09,.66,.15,.98,.03,.14,.05,.28,.08,.41,.09,.4,.19,.79,.3,1.18,.01,.04,.02,.08,.03,.12,.13,.42,.28,.82,.45,1.23,.06,.13,.12,.27,.18,.4,.12,.27,.25,.54,.39,.81,.07,.14,.14,.28,.22,.41,.16,.29,.34,.58,.52,.86,.06,.09,.11,.17,.16,.26,.23,.34,.48,.67,.74,.99,.11,.13,.22,.26,.33,.39,.17,.2,.34,.39,.52,.58,.13,.13,.26,.27,.39,.4,.19,.19,.4,.37,.6,.54,.14,.12,.28,.25,.43,.37,.28,.23,.57,.45,.87,.65,.16,.11,.33,.22,.5,.32,.2,.13,.4,.25,.6,.36,.18,.1,.36,.2,.54,.3,.22,.11,.44,.22,.66,.32,.17,.08,.34,.16,.52,.24,4.37,23.18,24.71,40.72,49.16,40.72h8.68v16.6l57.41-17.81c19.36-4.32,34.49-19.85,38.21-39.44,5.56-2.22,9.49-7.64,9.49-13.99v-9.7c0-6.75-4.44-12.46-10.56-14.38Z"/>
  <rect class="cls-2" x="349.43" y="528.15" width="115.66" height="61.02" rx="30.51" ry="30.51"/>
  <path class="cls-3" d="M444.28,559.72c-.18-4.32-2.6-8.16-6.65-9.8s-8.39-.03-10.88,3.19c-1.49,1.92-2.25,4.18-2.35,6.61-.05,1.31,1.19,2.56,2.5,2.5,1.4-.06,2.44-1.1,2.5-2.5,0-.12,.1-1.03,0-.4,.03-.21,.07-.41,.11-.62,.1-.47,.25-.92,.42-1.37-.22,.54,.02-.01,.08-.13,.12-.23,.25-.46,.4-.68,.11-.16,.22-.33,.34-.48-.38,.51,.15-.14,.24-.23,.13-.14,.27-.27,.41-.4,.09-.09,.19-.17,.29-.25-.23,.18-.27,.21-.13,.1,.36-.17,.7-.43,1.06-.63,.25-.12,.23-.11-.08,.03,.12-.05,.24-.09,.36-.13,.18-.06,.37-.11,.55-.15,.12-.03,.25-.05,.38-.08-.31,.04-.38,.04-.18,.02,.23,0,.46-.03,.69-.03,.2,0,.39,.02,.59,.03,.29,.03,.26,.03-.09-.01,.13,.02,.25,.05,.38,.08,.19,.04,.37,.09,.55,.15,.12,.04,.24,.08,.36,.13-.28-.12-.33-.14-.16-.07,.34,.22,.72,.4,1.07,.61,.22,.16,.21,.15-.05-.05,.1,.08,.2,.16,.29,.25,.14,.13,.28,.26,.41,.4,.08,.09,.62,.74,.24,.23,.12,.16,.23,.32,.34,.48,.12,.19,.24,.39,.35,.6,.06,.11,.35,.78,.13,.22,.17,.44,.32,.9,.42,1.37,.05,.2,.08,.41,.11,.62-.09-.63,0,.28,0,.4,.05,1.3,1.11,2.56,2.5,2.5,1.31-.06,2.56-1.1,2.5-2.5h0Z"/>
  <path class="cls-3" d="M390.13,559.72c-.18-4.32-2.6-8.16-6.65-9.8s-8.39-.03-10.88,3.19c-1.49,1.92-2.25,4.18-2.35,6.61-.05,1.31,1.19,2.56,2.5,2.5,1.4-.06,2.44-1.1,2.5-2.5,0-.12,.1-1.03,0-.4,.03-.21,.07-.41,.11-.62,.1-.47,.25-.92,.42-1.37-.22,.54,.02-.01,.08-.13,.12-.23,.25-.46,.4-.68,.11-.16,.22-.33,.34-.48-.38,.51,.15-.14,.24-.23,.13-.14,.27-.27,.41-.4,.09-.09,.19-.17,.29-.25-.23,.18-.27,.21-.13,.1,.36-.17,.7-.43,1.06-.63,.25-.12,.23-.11-.08,.03,.12-.05,.24-.09,.36-.13,.18-.06,.37-.11,.55-.15,.12-.03,.25-.05,.38-.08-.31,.04-.38,.04-.18,.02,.23,0,.46-.03,.69-.03,.2,0,.39,.02,.59,.03,.29,.03,.26,.03-.09-.01,.13,.02,.25,.05,.38,.08,.19,.04,.37,.09,.55,.15,.12,.04,.24,.08,.36,.13-.28-.12-.33-.14-.16-.07,.34,.22,.72,.4,1.07,.61,.22,.16,.21,.15-.05-.05,.1,.08,.2,.16,.29,.25,.14,.13,.28,.26,.41,.4,.08,.09,.62,.74,.24,.23,.12,.16,.23,.32,.34,.48,.12,.19,.24,.39,.35,.6,.06,.11,.35,.78,.13,.22,.17,.44,.32,.9,.42,1.37,.05,.2,.08,.41,.11,.62-.09-.63,0,.28,0,.4,.05,1.3,1.11,2.56,2.5,2.5,1.31-.06,2.56-1.1,2.5-2.5h0Z"/>
  <line class="cls-1" x1="387.21" y1="554.31" x2="387.21" y2="554.31"/>
</svg>