<?xml version="1.0" encoding="UTF-8"?>
<svg id="Layer_1" data-name="Layer 1" xmlns="http://www.w3.org/2000/svg" viewBox="0 0 792 1224">
  <defs>
    <style>
      .cls-1 {
        fill: none;
        stroke: #231f20;
        stroke-miterlimit: 10;
      }

      .cls-2 {
        fill: #13143f;
      }

      .cls-3 {
        fill: #70cde0;
      }

      .cls-4 {
        fill: #b3b3b3;
      }
    </style>
  </defs>
  <path class="cls-4" d="M430.83,96.39C414.81,40.73,363.54,0,302.72,0H155.78C94.9,0,43.59,40.82,27.62,96.57c0,0,0,0,0,0-1.78,.58-3.5,1.31-5.16,2.13-.25,.12-.51,.24-.76,.37-.68,.35-1.33,.73-1.98,1.12-.34,.2-.69,.41-1.02,.62-.61,.39-1.21,.79-1.8,1.21-.35,.25-.69,.51-1.03,.77-.57,.43-1.13,.86-1.67,1.32-.32,.27-.61,.56-.92,.84-.9,.81-1.76,1.66-2.59,2.55-.38,.41-.77,.82-1.13,1.24-.38,.44-.73,.91-1.09,1.37-.37,.48-.73,.96-1.08,1.45-.32,.45-.63,.91-.93,1.37-.37,.56-.71,1.14-1.05,1.73-.25,.43-.5,.84-.73,1.28-.49,.93-.95,1.88-1.37,2.85-.12,.27-.22,.54-.33,.82-.37,.92-.72,1.85-1.02,2.8-.13,.4-.23,.8-.35,1.21-.22,.78-.43,1.56-.6,2.35-.1,.43-.19,.87-.27,1.3-.16,.83-.28,1.67-.38,2.51-.05,.39-.11,.78-.14,1.17-.12,1.24-.19,2.49-.19,3.76v25.85c0,1.25,.07,2.48,.19,3.7,.03,.37,.08,.73,.13,1.09,.11,.88,.24,1.76,.4,2.62,.07,.37,.13,.73,.21,1.1,.23,1.06,.5,2.11,.81,3.14,.03,.11,.06,.22,.09,.33,.35,1.11,.76,2.2,1.2,3.27,.15,.36,.31,.71,.47,1.06,.33,.73,.67,1.45,1.04,2.16,.19,.37,.38,.74,.59,1.1,.44,.78,.9,1.54,1.39,2.29,.15,.23,.28,.47,.43,.69,.62,.91,1.28,1.78,1.96,2.63,.29,.35,.59,.69,.89,1.04,.45,.52,.92,1.04,1.4,1.54,.34,.36,.69,.71,1.04,1.06,.52,.5,1.05,.98,1.6,1.45,.38,.33,.76,.67,1.15,.99,.75,.61,1.53,1.19,2.33,1.74,.43,.3,.88,.58,1.32,.86,.52,.33,1.05,.66,1.6,.97,.48,.27,.96,.54,1.44,.79,.58,.3,1.16,.57,1.75,.85,.46,.21,.91,.44,1.38,.63,11.64,61.76,65.84,108.49,130.99,108.49h23.13v44.22l152.96-47.45c51.59-11.51,91.89-52.9,101.8-105.08,14.8-5.91,25.28-20.35,25.28-37.26v-25.85c0-17.98-11.83-33.2-28.13-38.3Z"/>
  <rect class="cls-2" x="76.19" y="71.43" width="308.16" height="162.59" rx="30.51" ry="30.51"/>
  <path class="cls-3" d="M324.77,155.56c-.36-9.6-5.84-18.66-14.96-22.23-8.65-3.38-18.57-.17-24.22,7.02-3.44,4.37-5.26,9.66-5.47,15.21-.12,3.22,4.88,3.21,5,0,.27-7.29,4.38-14.57,11.29-17.41s14.63-.34,19.15,5.47c2.65,3.41,4.05,7.64,4.21,11.93,.12,3.21,5.12,3.22,5,0h0Z"/>
  <path class="cls-3" d="M180.5,155.56c-.36-9.6-5.84-18.66-14.96-22.23-8.65-3.38-18.57-.17-24.22,7.02-3.44,4.37-5.26,9.66-5.47,15.21-.12,3.22,4.88,3.21,5,0,.27-7.29,4.38-14.57,11.29-17.41s14.63-.34,19.15,5.47c2.65,3.41,4.05,7.64,4.21,11.93,.12,3.21,5.12,3.22,5,0h0Z"/>
  <line class="cls-1" x1="176.86" y1="141.13" x2="176.86" y2="141.13"/>
</svg>